<svg width="17" height="16" viewBox="0 0 17 16" fill="none" xmlns="http://www.w3.org/2000/svg">
<path d="M8.91202 7.98898L6.86321 10.0378C5.72982 11.1712 5.72982 13.0166 6.86321 14.15C7.9966 15.2833 9.84198 15.2833 10.9754 14.15L14.2012 10.9242C15.2897 9.83246 15.901 8.35368 15.901 6.812C15.901 5.27033 15.2897 3.79155 14.2012 2.69984C13.1095 1.61128 11.6307 1 10.089 1C8.54732 1 7.06854 1.61128 5.97684 2.69984L2.46044 6.21625C1.99745 6.67884 1.63016 7.22814 1.37957 7.83275C1.12898 8.43737 1 9.08544 1 9.73992C1 10.3944 1.12898 11.0425 1.37957 11.6471C1.63016 12.2517 1.99745 12.801 2.46044 13.2636" stroke="#797979" stroke-width="1.25" stroke-linecap="round" stroke-linejoin="round"/>
</svg>
