<svg width="18" height="18" viewBox="0 0 18 18" fill="none" xmlns="http://www.w3.org/2000/svg">
<g clip-path="url(#clip0_261_29386)">
<path d="M9 1.5C7.80653 1.5 6.66193 1.97411 5.81802 2.81802C4.97411 3.66193 4.5 4.80653 4.5 6C4.5 7.06425 4.7265 7.761 5.34375 8.53125L9 12.75L12.6562 8.53125C13.2735 7.761 13.5 7.06425 13.5 6C13.5 4.80653 13.0259 3.66193 12.182 2.81802C11.3381 1.97411 10.1935 1.5 9 1.5Z" stroke="black" stroke-width="1.25" stroke-linecap="round" stroke-linejoin="round"/>
<path d="M3.75 11.3574C2.36175 11.9027 1.5 12.6609 1.5 13.5002C1.5 15.1577 4.85775 16.5002 9 16.5002C13.1422 16.5002 16.5 15.1577 16.5 13.5002C16.5 12.6609 15.6382 11.9027 14.25 11.3574" stroke="black" stroke-width="1.25" stroke-linecap="round" stroke-linejoin="round"/>
<path d="M9 6.75C9.41421 6.75 9.75 6.41421 9.75 6C9.75 5.58579 9.41421 5.25 9 5.25C8.58579 5.25 8.25 5.58579 8.25 6C8.25 6.41421 8.58579 6.75 9 6.75Z" stroke="black" stroke-width="1.25" stroke-linecap="round" stroke-linejoin="round"/>
</g>
<defs>
<clipPath id="clip0_261_29386">
<rect width="18" height="18" fill="white"/>
</clipPath>
</defs>
</svg>
