<svg width="12" height="18" viewBox="0 0 12 18" fill="none" xmlns="http://www.w3.org/2000/svg">
<path d="M4.95 10.062L8.121 6.872C8.21833 6.774 8.33333 6.725 8.466 6.725C8.59867 6.725 8.71967 6.77367 8.829 6.871C8.93833 6.96833 8.99033 7.08733 8.985 7.228C8.97833 7.368 8.92633 7.487 8.829 7.585L5.516 10.898C5.354 11.06 5.16133 11.141 4.938 11.141C4.71467 11.141 4.522 11.06 4.36 10.898L3.17 9.704C3.07267 9.60667 3.021 9.49167 3.015 9.359C3.009 9.22633 3.06067 9.10533 3.17 8.996C3.26733 8.89867 3.38533 8.851 3.524 8.853C3.66267 8.855 3.78067 8.90267 3.878 8.996L4.95 10.062ZM4.73 18C4.50267 18 4.29933 17.9317 4.12 17.795C3.94067 17.6583 3.81667 17.476 3.748 17.248L3.116 15.034C3.02867 14.752 2.89667 14.482 2.72 14.224C2.544 13.9653 2.30833 13.7103 2.013 13.459C1.36967 12.9197 0.873333 12.2647 0.524 11.494C0.174667 10.7233 0 9.892 0 9C0 8.12467 0.174667 7.30133 0.524 6.53C0.873333 5.75867 1.37 5.09533 2.014 4.54C2.30867 4.272 2.544 4.01 2.72 3.754C2.896 3.49733 3.02767 3.23467 3.115 2.966L3.748 0.752C3.81733 0.524 3.94133 0.341667 4.12 0.205C4.29867 0.0683333 4.502 0 4.73 0H7.27C7.498 0 7.70133 0.0683333 7.88 0.205C8.05867 0.341667 8.18267 0.524 8.252 0.752L8.885 2.966C8.97167 3.248 9.10333 3.518 9.28 3.776C9.456 4.03467 9.69167 4.28967 9.987 4.541C10.6303 5.08033 11.1267 5.73533 11.476 6.506C11.8253 7.27667 12 8.108 12 9C12 9.876 11.8253 10.6993 11.476 11.47C11.1267 12.2407 10.63 12.904 9.986 13.46C9.69133 13.728 9.456 13.99 9.28 14.246C9.104 14.5027 8.97233 14.7657 8.885 15.035L8.252 17.248C8.18267 17.4767 8.05867 17.659 7.88 17.795C7.70133 17.931 7.498 17.9993 7.27 18H4.73ZM6 14C7.38333 14 8.56267 13.5123 9.538 12.537C10.5133 11.5617 11.0007 10.3827 11 9C10.9993 7.61733 10.5117 6.43833 9.537 5.463C8.56233 4.48767 7.38333 4 6 4C4.61667 4 3.43767 4.48767 2.463 5.463C1.48833 6.43833 1.00067 7.61733 1 9C0.999333 10.3827 1.487 11.562 2.463 12.538C3.439 13.514 4.618 14.0013 6 14ZM4.061 3.327C4.40767 3.21767 4.73833 3.135 5.053 3.079C5.36767 3.02233 5.68333 2.994 6 2.994C6.31667 2.994 6.63233 3.02233 6.947 3.079C7.26167 3.13567 7.592 3.21833 7.938 3.327L7.27 1H4.732L4.061 3.327ZM4.731 17H7.269L7.939 14.673C7.59233 14.7823 7.26167 14.861 6.947 14.909C6.63233 14.957 6.31667 14.9807 6 14.98C5.68333 14.9793 5.36767 14.9553 5.053 14.908C4.73833 14.8607 4.408 14.782 4.062 14.672L4.731 17Z" fill="black"/>
</svg>
