<svg width="48" height="36" viewBox="0 0 48 36" fill="none" xmlns="http://www.w3.org/2000/svg">
<path d="M18.6691 35.9925C13.825 36.1292 9.20912 34.3885 5.68873 31.0835C2.16094 27.7863 0.145381 23.3159 0.00759456 18.5124C-0.130761 13.7089 1.62516 9.1318 4.95766 5.64097C8.28333 2.14279 12.791 0.14416 17.6352 0.0075308C22.4799 -0.129664 27.0952 1.61152 30.6161 4.91604C34.1439 8.22056 36.1589 12.6836 36.2973 17.4871C36.4351 22.2912 34.6797 26.8677 31.3466 30.3591C28.0215 33.8567 23.5133 35.8553 18.6691 35.9925ZM17.6665 1.08589C13.1121 1.21461 8.87661 3.09751 5.74851 6.3817C2.62042 9.66533 0.965268 13.9658 1.09508 18.4819C1.2249 22.998 3.12374 27.1974 6.43574 30.2998C9.74717 33.4016 14.084 35.0423 18.6384 34.9136C23.1928 34.7849 27.4277 32.902 30.5564 29.6184C33.6845 26.3342 35.339 22.0343 35.2092 17.5182C35.0794 13.002 33.1806 8.80208 29.8691 5.70025C26.5571 2.59841 22.2208 0.957164 17.6665 1.08589Z" fill="black"/>
<path d="M31.0219 29.5719C31.1176 29.7616 31.1654 29.9513 31.1654 30.141C31.1654 30.4967 30.9502 30.6739 30.5209 30.6739H23.5291C22.8834 30.6739 22.453 30.4368 22.2378 29.9626L17.8628 20.0778C17.7671 19.9367 17.6714 19.8655 17.5758 19.8655C17.4574 19.8655 17.29 19.9959 17.0747 20.2562L14.5285 23.4924C14.3856 23.6584 14.3145 23.9187 14.3145 24.2738V29.6419C14.3145 30.0213 14.2188 30.2889 14.0275 30.4436C13.8362 30.5972 13.5367 30.6739 13.1302 30.6739H7.14273C6.78403 30.6739 6.53294 30.6034 6.38889 30.4617C6.24598 30.3188 6.1748 30.093 6.1748 29.7842V5.10951C6.1748 4.84924 6.23402 4.64825 6.35245 4.50653C6.47201 4.36369 6.63998 4.29199 6.85577 4.29199H13.6677C14.0987 4.29199 14.3145 4.54154 14.3145 5.0395V14.0345C14.3145 14.319 14.3737 14.4613 14.4921 14.4613C14.5878 14.4613 14.7073 14.3789 14.8519 14.2129L21.4498 5.0395C21.6638 4.75495 21.8722 4.55961 22.0761 4.45233C22.2793 4.34563 22.5845 4.29199 22.9916 4.29199H28.4416C28.7285 4.29199 28.9551 4.34563 29.1225 4.45233C29.2894 4.55961 29.3731 4.70753 29.3731 4.89723C29.3731 5.06322 29.3127 5.20549 29.1931 5.32405L23.3127 12.4694C23.1453 12.6592 23.0622 12.8613 23.0622 13.0747C23.0622 13.2407 23.11 13.418 23.2057 13.6077L31.0219 29.5719Z" fill="black"/>
<path d="M38.0743 5.81738C37.9114 5.81738 37.7492 5.82133 37.5869 5.82924C37.4246 5.83714 37.2629 5.849 37.1012 5.86481C36.9395 5.88062 36.7784 5.90038 36.6173 5.92409C36.4567 5.9478 36.2967 5.9749 36.1373 6.00652C35.9784 6.03814 35.8196 6.07314 35.6624 6.1121C35.5047 6.15162 35.3482 6.19453 35.1927 6.24139C35.0373 6.28768 34.883 6.3385 34.7298 6.3927C34.5772 6.4469 34.4258 6.50505 34.2755 6.56659C34.1252 6.62813 33.9771 6.69362 33.8302 6.7625C33.6833 6.83138 33.5381 6.90365 33.3947 6.9793C33.2517 7.05552 33.1105 7.13513 32.971 7.21756C32.8316 7.30055 32.6943 7.38693 32.5594 7.47614C32.4245 7.5659 32.2918 7.6585 32.1608 7.75448C32.0305 7.85046 31.9023 7.94926 31.7771 8.05145C31.6513 8.15364 31.5283 8.25865 31.4081 8.36705C31.288 8.47545 31.1701 8.58611 31.0551 8.70016C30.9401 8.8142 30.8285 8.93051 30.7192 9.0502C30.6105 9.16933 30.504 9.29128 30.4009 9.41605C30.2979 9.54026 30.1982 9.66729 30.1014 9.79658C30.0047 9.92587 29.9113 10.058 29.8207 10.1918C29.7308 10.3256 29.6437 10.4617 29.56 10.6C29.4768 10.7383 29.3966 10.8783 29.3203 11.02C29.2434 11.1623 29.1705 11.3063 29.1011 11.4519C29.0316 11.5976 28.9656 11.7444 28.9035 11.8935C28.8414 12.0425 28.7828 12.1927 28.7281 12.344C28.6735 12.4959 28.6228 12.6489 28.5755 12.803C28.5283 12.9571 28.485 13.1124 28.4457 13.2682C28.4059 13.4246 28.3706 13.5816 28.3387 13.7396C28.3068 13.8977 28.2795 14.0564 28.2556 14.2156C28.2316 14.3754 28.2117 14.5352 28.1958 14.6955C28.1798 14.8558 28.1679 15.0162 28.1599 15.1771C28.1519 15.338 28.1479 15.4989 28.1479 15.6598C28.1479 15.8213 28.1519 15.9822 28.1599 16.1431C28.1679 16.304 28.1798 16.4643 28.1958 16.6247C28.2117 16.785 28.2316 16.9448 28.2556 17.104C28.2795 17.2638 28.3068 17.4224 28.3387 17.58C28.3706 17.738 28.4059 17.8956 28.4457 18.0514C28.485 18.2078 28.5283 18.363 28.5755 18.5172C28.6228 18.6713 28.6735 18.8243 28.7281 18.9762C28.7828 19.1275 28.8414 19.2777 28.9035 19.4267C28.9656 19.5752 29.0316 19.7226 29.1011 19.8682C29.1705 20.0139 29.2434 20.1579 29.3203 20.2996C29.3966 20.4418 29.4768 20.5819 29.56 20.7202C29.6437 20.8585 29.7308 20.9946 29.8207 21.1284C29.9113 21.2622 30.0047 21.3937 30.1014 21.523C30.1982 21.6529 30.2979 21.7799 30.4009 21.9041C30.504 22.0289 30.6105 22.1508 30.7192 22.27C30.8285 22.3891 30.9401 22.506 31.0551 22.62C31.1701 22.7335 31.288 22.8447 31.4081 22.9531C31.5283 23.061 31.6513 23.1665 31.7771 23.2687C31.9023 23.3709 32.0305 23.4697 32.1608 23.5657C32.2918 23.6617 32.4245 23.7543 32.5594 23.844C32.6943 23.9332 32.8316 24.0196 32.971 24.1026C33.1105 24.185 33.2517 24.2647 33.3947 24.3403C33.5381 24.4165 33.6833 24.4888 33.8302 24.5577C33.9771 24.6266 34.1252 24.692 34.2755 24.7536C34.4258 24.8151 34.5772 24.8733 34.7298 24.9275C34.883 24.9817 35.0373 25.0319 35.1927 25.0788C35.3482 25.1256 35.5047 25.1686 35.6624 25.2075C35.8196 25.247 35.9784 25.282 36.1373 25.3137C36.2967 25.3453 36.4567 25.3724 36.6173 25.3961C36.7784 25.4198 36.9395 25.4396 37.1012 25.4554C37.2629 25.4712 37.4246 25.483 37.5869 25.4909C37.7492 25.4988 37.9114 25.5028 38.0743 25.5028C38.2365 25.5028 38.3988 25.4988 38.5611 25.4909C38.7234 25.483 38.8851 25.4712 39.0468 25.4554C39.2085 25.4396 39.3696 25.4198 39.5307 25.3961C39.6913 25.3724 39.8513 25.3453 40.0107 25.3137C40.1695 25.282 40.3284 25.247 40.4855 25.2075C40.6433 25.1686 40.7998 25.1256 40.9553 25.0788C41.1107 25.0319 41.265 24.9817 41.4182 24.9275C41.5708 24.8733 41.7222 24.8151 41.8725 24.7536C42.0228 24.692 42.1709 24.6266 42.3178 24.5577C42.4647 24.4888 42.6098 24.4165 42.7533 24.3403C42.8962 24.2647 43.0374 24.185 43.1769 24.1026C43.3164 24.0196 43.4536 23.9332 43.5886 23.844C43.7235 23.7543 43.8562 23.6617 43.9871 23.5657C44.1175 23.4697 44.2456 23.3709 44.3709 23.2687C44.4967 23.1665 44.6197 23.061 44.7398 22.9531C44.86 22.8447 44.9778 22.7335 45.0929 22.62C45.2079 22.506 45.3195 22.3891 45.4288 22.27C45.5375 22.1508 45.644 22.0289 45.7471 21.9041C45.8501 21.7799 45.9497 21.6529 46.0465 21.523C46.1433 21.3937 46.2367 21.2622 46.3272 21.1284C46.4172 20.9946 46.5043 20.8585 46.588 20.7202C46.6711 20.5819 46.7514 20.4418 46.8277 20.2996C46.9046 20.1579 46.9775 20.0139 47.0469 19.8682C47.1164 19.7226 47.1824 19.5752 47.2445 19.4267C47.3065 19.2777 47.3652 19.1275 47.4199 18.9762C47.4745 18.8243 47.5252 18.6713 47.5724 18.5172C47.6197 18.363 47.663 18.2078 47.7023 18.0514C47.7421 17.8956 47.7774 17.738 47.8093 17.58C47.8412 17.4224 47.8685 17.2638 47.8924 17.104C47.9163 16.9448 47.9363 16.785 47.9522 16.6247C47.9682 16.4643 47.9801 16.304 47.9881 16.1431C47.9961 15.9822 48 15.8213 48 15.6598C48 15.4989 47.9961 15.338 47.9881 15.1771C47.9801 15.0162 47.9682 14.8558 47.9522 14.6955C47.9363 14.5352 47.9163 14.3754 47.8924 14.2156C47.8685 14.0564 47.8412 13.8977 47.8093 13.7396C47.7774 13.5816 47.7421 13.4246 47.7023 13.2682C47.663 13.1124 47.6197 12.9571 47.5724 12.803C47.5252 12.6489 47.4745 12.4959 47.4199 12.344C47.3652 12.1927 47.3065 12.0425 47.2445 11.8935C47.1824 11.7444 47.1164 11.5976 47.0469 11.4519C46.9775 11.3063 46.9046 11.1623 46.8277 11.02C46.7514 10.8783 46.6711 10.7383 46.588 10.6C46.5043 10.4617 46.4172 10.3256 46.3272 10.1918C46.2367 10.058 46.1433 9.92587 46.0465 9.79658C45.9497 9.66729 45.8501 9.54026 45.7471 9.41605C45.644 9.29128 45.5375 9.16933 45.4288 9.0502C45.3195 8.93051 45.2079 8.8142 45.0929 8.70016C44.9778 8.58611 44.86 8.47545 44.7398 8.36705C44.6197 8.25865 44.4967 8.15364 44.3709 8.05145C44.2456 7.94926 44.1175 7.85046 43.9871 7.75448C43.8562 7.6585 43.7235 7.5659 43.5886 7.47614C43.4536 7.38693 43.3164 7.30055 43.1769 7.21756C43.0374 7.13513 42.8962 7.05552 42.7533 6.9793C42.6098 6.90365 42.4647 6.83138 42.3178 6.7625C42.1709 6.69362 42.0228 6.62813 41.8725 6.56659C41.7222 6.50505 41.5708 6.4469 41.4182 6.3927C41.265 6.3385 41.1107 6.28768 40.9553 6.24139C40.7998 6.19453 40.6433 6.15162 40.4855 6.1121C40.3284 6.07314 40.1695 6.03814 40.0107 6.00652C39.8513 5.9749 39.6913 5.9478 39.5307 5.92409C39.3696 5.90038 39.2085 5.88062 39.0468 5.86481C38.8851 5.849 38.7234 5.83714 38.5611 5.82924C38.3988 5.82133 38.2365 5.81738 38.0743 5.81738Z" fill="#FFDE59"/>
<path d="M34.2369 11.5039C34.2836 11.5039 34.3075 11.5304 34.3075 11.5829V14.8937C34.3075 14.918 34.2967 14.9383 34.2756 14.9547C34.2557 14.9699 34.23 14.9772 34.1982 14.9772H33.5514C33.5223 14.9772 33.4995 14.9727 33.483 14.9637C33.4659 14.9547 33.4466 14.936 33.4238 14.9072L32.1257 13.1615C32.1131 13.1452 32.1017 13.1384 32.0915 13.1412C32.0824 13.1446 32.0778 13.1542 32.0778 13.1706V14.8734C32.0807 14.9112 32.0738 14.9383 32.0573 14.9547C32.0403 14.9699 32.0101 14.9772 31.9662 14.9772H31.324C31.2449 14.9772 31.2056 14.9467 31.2056 14.8846V11.6123C31.2056 11.54 31.2397 11.5039 31.3081 11.5039H32.0778C32.1188 11.5039 32.149 11.5096 32.1689 11.5197C32.19 11.5304 32.2133 11.553 32.2395 11.5875L33.3714 13.1525C33.3908 13.1796 33.4084 13.1931 33.4238 13.1931C33.4386 13.1931 33.4466 13.1728 33.4466 13.1322V11.601C33.4466 11.5367 33.4813 11.5039 33.5514 11.5039H34.2369Z" fill="black"/>
<path d="M36.399 15.0252C36.0557 15.0252 35.7556 14.9529 35.4994 14.8084C35.2426 14.6627 35.0445 14.4561 34.905 14.1896C34.7666 13.922 34.6978 13.6087 34.6978 13.2502C34.6978 12.8922 34.7672 12.5783 34.9073 12.3084C35.0485 12.0374 35.2472 11.8285 35.504 11.6806C35.7602 11.5316 36.0585 11.457 36.399 11.457C36.7344 11.457 37.0299 11.5316 37.285 11.6806C37.54 11.8285 37.737 12.0374 37.8771 12.3084C38.0183 12.5783 38.0889 12.8922 38.0889 13.2502C38.0889 13.6058 38.0189 13.9181 37.8794 14.1874C37.741 14.4555 37.5446 14.6627 37.2895 14.8084C37.0344 14.9529 36.7372 15.0252 36.399 15.0252ZM36.399 14.2935C36.5368 14.2935 36.6473 14.2608 36.7293 14.1941C36.8112 14.1264 36.8705 14.018 36.9069 13.8689C36.9445 13.7188 36.9638 13.5166 36.9638 13.2637C36.9638 12.877 36.9194 12.5992 36.8317 12.4304C36.7435 12.2621 36.5994 12.1774 36.399 12.1774C36.194 12.1774 36.0466 12.2621 35.9572 12.4304C35.8672 12.5992 35.8228 12.877 35.8228 13.2637C35.8228 13.5166 35.841 13.7188 35.8775 13.8689C35.9151 14.018 35.976 14.1264 36.0597 14.1941C36.1428 14.2608 36.2561 14.2935 36.399 14.2935Z" fill="black"/>
<path d="M43.2017 11.5039C43.2484 11.5039 43.2849 11.5163 43.3111 11.54C43.3384 11.5626 43.3521 11.5942 43.3521 11.6349C43.3521 11.6473 43.3486 11.6659 43.343 11.6913L42.3841 14.8598C42.3688 14.9005 42.3483 14.9309 42.3226 14.9501C42.2982 14.9682 42.2623 14.9772 42.2156 14.9772H41.562C41.4709 14.9772 41.4145 14.9383 41.3934 14.8598L40.9015 13.2112C40.8924 13.1723 40.8816 13.1525 40.8696 13.1525C40.8605 13.1525 40.8457 13.1762 40.8264 13.2225L40.3413 14.8598C40.3276 14.9005 40.3071 14.9309 40.2798 14.9501C40.2536 14.9682 40.2171 14.9772 40.1704 14.9772H39.494C39.4468 14.9772 39.4103 14.9682 39.3847 14.9501C39.3602 14.9309 39.3403 14.9005 39.3255 14.8598L38.3621 11.6913C38.3559 11.6659 38.353 11.6473 38.353 11.6349C38.353 11.5942 38.3656 11.5626 38.3917 11.54C38.4191 11.5163 38.4561 11.5039 38.5033 11.5039H39.2822C39.3289 11.5039 39.3631 11.5124 39.3847 11.5287C39.4075 11.544 39.424 11.5683 39.4348 11.601L39.9336 13.3377C39.9427 13.3755 39.9541 13.3941 39.9677 13.3941C39.9769 13.3941 39.9843 13.3823 39.9905 13.358L40.487 11.601C40.5018 11.5367 40.5519 11.5039 40.6373 11.5039H41.2978C41.3445 11.5039 41.3786 11.5124 41.4003 11.5287C41.423 11.544 41.4396 11.5683 41.4504 11.601L41.9696 13.3806C41.9753 13.4003 41.9844 13.4116 41.997 13.4145C42.0089 13.4179 42.0175 13.4094 42.022 13.3896L42.5026 11.601C42.5174 11.5367 42.5675 11.5039 42.6529 11.5039H43.2017Z" fill="black"/>
<path d="M31.1763 16.2939C31.1763 16.2623 31.1859 16.2369 31.2059 16.2172C31.2269 16.1963 31.2566 16.1855 31.2947 16.1855H34.1188C34.1552 16.1855 34.1831 16.1963 34.203 16.2172C34.2241 16.2369 34.2349 16.2623 34.2349 16.2939V16.8495C34.2349 16.9099 34.2007 16.9398 34.1324 16.9398H33.2966C33.2584 16.9398 33.2397 16.9551 33.2397 16.985V19.555C33.2397 19.59 33.2311 19.616 33.2146 19.634C33.1992 19.651 33.1782 19.6589 33.1508 19.6589H32.2535C32.1954 19.6589 32.167 19.6284 32.167 19.5663V17.0053C32.167 16.9619 32.1499 16.9398 32.1169 16.9398H31.2856C31.2127 16.9398 31.1763 16.9099 31.1763 16.8495V16.2939Z" fill="black"/>
<path d="M35.5999 16.1855C35.6557 16.1855 35.6842 16.2183 35.6842 16.2827V19.5234C35.6842 19.5731 35.6711 19.6086 35.6455 19.6295C35.621 19.6493 35.5823 19.6589 35.5293 19.6589H34.7413C34.6941 19.6589 34.6605 19.6498 34.6411 19.6318C34.6229 19.6126 34.6138 19.5821 34.6138 19.5414V16.2939C34.6138 16.2595 34.6212 16.233 34.6365 16.2149C34.6531 16.1957 34.6753 16.1855 34.7026 16.1855H35.5999Z" fill="black"/>
<path d="M37.7475 16.1387C38.0083 16.1387 38.2446 16.185 38.4558 16.2764C38.6665 16.3685 38.8395 16.4955 38.9751 16.6581C39.11 16.8207 39.1982 17.007 39.2392 17.2159C39.2484 17.2537 39.2529 17.2831 39.2529 17.304C39.2529 17.3328 39.2472 17.3514 39.237 17.3604C39.2261 17.3695 39.2062 17.3757 39.1778 17.3785L38.351 17.4304C38.3203 17.4304 38.2998 17.4254 38.2895 17.4146C38.2804 17.4045 38.2713 17.3802 38.2622 17.3424C38.2332 17.1922 38.1808 17.0736 38.1051 16.9878C38.0305 16.902 37.9212 16.8591 37.7771 16.8591C37.5904 16.8591 37.4469 16.9404 37.3467 17.103C37.2465 17.2656 37.1964 17.5292 37.1964 17.8934C37.1964 18.2717 37.2425 18.5404 37.3353 18.6996C37.4275 18.8594 37.5727 18.939 37.7703 18.939C37.9371 18.939 38.08 18.8972 38.1984 18.8125C38.3169 18.7284 38.4154 18.5878 38.4945 18.3902C38.5036 18.3631 38.5298 18.3496 38.5742 18.3496C38.5953 18.3496 38.6129 18.3513 38.6266 18.3541L39.2165 18.4693C39.2632 18.4862 39.2871 18.5224 39.2871 18.5777C39.2871 18.6652 39.2324 18.8007 39.1231 18.9842C39.0149 19.1665 38.8452 19.3331 38.6129 19.4833C38.3818 19.6323 38.0903 19.7069 37.7384 19.7069C37.4042 19.7069 37.111 19.6278 36.8593 19.4697C36.6088 19.3116 36.414 19.0948 36.2763 18.8193C36.1396 18.5427 36.0713 18.2276 36.0713 17.8753C36.0713 17.5264 36.1396 17.2204 36.2763 16.9585C36.414 16.6965 36.6093 16.4949 36.8616 16.3532C37.1149 16.2104 37.4104 16.1387 37.7475 16.1387Z" fill="black"/>
<path d="M39.6558 16.2939C39.6558 16.2217 39.6854 16.1855 39.7446 16.1855H42.2953C42.3511 16.1855 42.3796 16.2183 42.3796 16.2827L42.3751 16.8269C42.3751 16.9116 42.3341 16.9534 42.2521 16.9534H40.8355C40.7626 16.9534 40.7262 16.9827 40.7262 17.0415V17.4389C40.7262 17.4705 40.7336 17.4954 40.7489 17.5135C40.7655 17.5304 40.7865 17.5383 40.8127 17.5383H41.6622C41.7271 17.5383 41.7601 17.5693 41.7601 17.6309V18.2113C41.7601 18.2655 41.7317 18.2926 41.6759 18.2926H40.8036C40.7808 18.2926 40.7615 18.2988 40.7467 18.3106C40.733 18.3231 40.7262 18.3389 40.7262 18.3581V18.8255C40.7262 18.8515 40.7296 18.8685 40.7376 18.8775C40.7467 18.8865 40.7615 18.891 40.7831 18.891H42.3181C42.3876 18.891 42.4229 18.9204 42.4229 18.9791V19.555C42.4229 19.5866 42.4126 19.6126 42.3933 19.6318C42.3751 19.6498 42.3466 19.6589 42.309 19.6589H39.7833C39.736 19.6589 39.7024 19.6498 39.6831 19.6318C39.6649 19.6126 39.6558 19.5821 39.6558 19.5414V16.2939Z" fill="black"/>
<path d="M43.5065 16.1855C43.8811 16.1855 44.1146 16.1872 44.2057 16.1901C44.8189 16.2115 45.2829 16.3764 45.5972 16.6846C45.9126 16.9918 46.0709 17.4017 46.0709 17.9132C46.0709 18.2564 45.9992 18.5591 45.8568 18.821C45.7156 19.083 45.5044 19.2885 45.2237 19.4376C44.9441 19.5855 44.6031 19.6589 44.2011 19.6589H42.9599C42.9126 19.6589 42.8779 19.6487 42.8551 19.6273C42.8335 19.6047 42.8232 19.5685 42.8232 19.5189V16.303C42.8232 16.2595 42.8324 16.2296 42.8506 16.2126C42.8699 16.1946 42.9035 16.1855 42.9508 16.1855H43.5065ZM43.9415 16.9195C43.9261 16.9195 43.9141 16.9252 43.905 16.9353C43.8971 16.9443 43.8937 16.9613 43.8937 16.985V18.8526C43.8937 18.8814 43.8982 18.9012 43.9073 18.9114C43.9176 18.9204 43.9352 18.9249 43.9597 18.9249H43.9939C44.3047 18.9249 44.5416 18.8447 44.7044 18.6833C44.8667 18.5224 44.9481 18.261 44.9481 17.8996C44.9481 17.5868 44.8866 17.3542 44.7636 17.2018C44.6407 17.0482 44.4607 16.9613 44.2239 16.9398L43.9415 16.9195Z" fill="black"/>
</svg>
