<svg width="36" height="42" viewBox="0 0 36 42" fill="none" xmlns="http://www.w3.org/2000/svg">
<path d="M35.27 23.786C35.7564 24.2842 36.0048 24.9183 36.0048 25.572V31.6967C36.004 32.3768 35.7405 33.0288 35.272 33.5095C34.8036 33.9901 34.1687 34.2601 33.5067 34.2601H32.0093V37.8229C32.0093 38.9038 31.7345 39.7432 31.1893 40.3033C30.6897 40.8165 29.9946 41.4098 29.0291 41.4098H3.65268C2.83859 41.4098 1.87902 40.972 1.22804 40.3033C0.57706 39.6345 0.140625 38.6577 0.140625 37.8229V3.10971C0.140625 2.11938 0.728417 1.42342 1.22804 0.911647C1.77322 0.351563 2.59907 0.0873718 3.65268 0.0873718H20.2725C20.3357 0.0873718 20.3989 0.0647266 20.4606 0.063217C20.537 0.0601976 20.612 0.0390625 20.6884 0.0390625C20.9367 0.0390625 21.2673 0.0601977 21.6141 0.224751L21.7361 0.280608C22.0476 0.424026 22.4047 0.58858 22.7118 0.956937L31.4435 11.4883C31.708 11.8069 31.8505 12.1556 31.9608 12.4636C32.1018 12.8561 32.0401 13.1927 32.021 13.4403C32.0166 13.5068 32.0078 13.5747 32.0078 13.6411V23.0599H33.5052C34.1415 23.0599 34.7836 23.2879 35.2686 23.7875L35.27 23.786ZM21.0469 1.6544V10.3969C21.0469 10.8498 21.2791 11.3857 21.62 11.7374C21.9654 12.0907 22.4797 12.3368 22.9161 12.3368H30.1401L21.598 1.96992C21.5128 1.86726 21.3585 1.79329 21.1086 1.67856L21.0469 1.6544ZM30.5236 37.8259V34.2616H13.1073C12.444 34.2612 11.8078 33.9916 11.3371 33.5115C10.8665 33.0313 10.5995 32.3796 10.5945 31.6982V25.5735C10.5945 24.9198 10.8502 24.2873 11.3366 23.7891C11.8215 23.2909 12.471 23.0614 13.1073 23.0614H30.5236V13.863H22.9161C22.0785 13.863 21.1968 13.4615 20.5679 12.8168C19.9419 12.1752 19.5598 11.2604 19.5598 10.3969V1.61213H3.65415C3.21184 1.61213 2.62405 1.66346 2.3037 1.99106C1.85992 2.44697 1.67623 2.77004 1.67623 3.10971V37.8229C1.67623 38.2456 1.94221 38.8525 2.30517 39.2238C2.66666 39.5952 3.2427 39.8836 3.65415 39.8836H29.0277C29.3598 39.8836 29.6919 39.6798 30.1371 39.2238C30.456 38.8962 30.5236 38.2773 30.5236 37.8229V37.8259ZM15.9978 11.5729C16.0727 11.6484 16.1433 11.7601 16.155 11.8491C16.1932 12.1541 16.1653 12.45 16.0257 12.6644C15.9486 12.7783 15.8336 12.8594 15.7024 12.8923C15.5962 12.9191 15.487 12.9318 15.3777 12.9301C14.662 12.9301 13.5276 12.5587 12.6062 12.0243C11.3968 12.21 10.017 12.5481 8.80468 12.9542C7.75547 14.8413 6.99428 15.6837 6.33595 15.6837C6.21325 15.6826 6.0925 15.6521 5.98328 15.5946L5.72024 15.4587C5.55566 15.3636 5.53215 15.1538 5.56448 14.9908C5.66587 14.4805 6.27718 13.8374 7.19854 13.2697C7.30728 13.2033 7.77017 12.9512 7.78927 12.9406L8.05966 12.7927C8.32122 12.3322 8.60924 11.7873 8.92665 11.1472L8.96779 11.0671C9.27051 10.4557 9.61143 9.7643 9.88622 9.07741L9.98321 8.83284C9.60114 7.32922 9.39101 6.1698 9.59526 5.39383C9.66286 5.14625 9.91855 4.98019 10.233 4.98019H10.2374L10.4035 4.98622C10.6841 4.97264 10.8649 5.20362 10.956 5.42252L10.9854 5.498C11.0077 5.55929 11.0225 5.62318 11.0295 5.68822C11.1176 6.35549 10.7797 8.3256 10.7797 8.3256C10.7631 8.40184 10.7455 8.47783 10.7268 8.55355C11.0383 9.43218 11.5379 10.2293 12.136 10.806C12.3564 11.0203 12.6415 11.1985 12.9148 11.3615C13.4723 11.2765 14.0352 11.2336 14.5988 11.2332C15.3145 11.2438 15.7862 11.3585 15.9978 11.5729ZM6.19489 15.1689C6.51817 15.0179 7.00898 14.5394 7.74078 13.3362C7.6588 13.4176 7.57502 13.4972 7.4895 13.5747C6.78855 14.1635 6.31391 14.8322 6.19635 15.1689H6.19489ZM10.3447 5.32892C10.2477 5.32892 10.2565 6.10488 10.2565 6.10488C10.2565 6.51249 10.3138 7.13447 10.4329 7.53C10.5798 7.26279 10.6959 6.90199 10.6856 6.3887C10.6753 5.87542 10.5548 5.32892 10.3447 5.32892ZM9.10593 12.3413C9.91414 12.0212 10.8311 11.7586 11.8921 11.5412C11.2631 11.0363 10.7427 10.403 10.3638 9.68127C10.1845 10.1583 9.94353 10.7395 9.56293 11.4808C9.40717 11.7842 9.25434 12.0696 9.10739 12.3413H9.10593ZM15.795 12.2794C15.8597 12.2371 15.8538 12.0379 15.4776 11.9382C15.1014 11.8401 14.9868 11.8416 14.6018 11.8416C14.3916 11.8416 14.1565 11.8507 13.9008 11.8703C14.5665 12.1647 15.0426 12.3443 15.4262 12.3443C15.5521 12.3479 15.6774 12.3258 15.795 12.2794ZM17.4335 29.1152H19.1351C19.4232 29.1152 19.6509 29.0895 19.8184 29.0382C19.9943 28.9817 20.1562 28.887 20.2931 28.7604C20.4629 28.602 20.5942 28.405 20.6766 28.1852C20.7693 27.9487 20.8162 27.6959 20.8147 27.4409C20.8147 27.1269 20.7457 26.8371 20.6061 26.5683C20.446 26.2397 20.1678 25.9879 19.8302 25.8664C19.6348 25.7999 19.3115 25.7667 18.8603 25.7667H16.3725V30.9116H17.4335V29.1152ZM17.4335 28.1973V26.6846H18.8956C19.0808 26.6846 19.2145 26.7027 19.2997 26.7389C19.5334 26.8371 19.6509 27.0575 19.6509 27.4032C19.6509 27.7202 19.573 27.9452 19.4187 28.0735C19.3144 28.155 19.1322 28.1973 18.875 28.1973H17.4335ZM21.4863 25.7667V30.9116H23.5994C24.0623 30.9116 24.4076 30.8905 24.6339 30.8467C24.8602 30.8029 25.0689 30.7199 25.257 30.5961C25.5568 30.3953 25.7698 30.0844 25.8992 29.6632C26.0285 29.251 26.0931 28.8147 26.0931 28.3498C26.0931 27.8833 26.027 27.444 25.8918 27.0318C25.8101 26.7753 25.671 26.542 25.4858 26.3507C25.3005 26.1593 25.0742 26.0151 24.825 25.9298C24.5355 25.8211 24.127 25.7667 23.5994 25.7667H21.4863ZM22.5473 26.6846H23.5994C24.0079 26.6846 24.3062 26.7722 24.4958 26.9473C24.6449 27.1049 24.7531 27.2986 24.8103 27.5104C24.8896 27.7625 24.9278 28.0388 24.9278 28.3437C24.9278 28.6154 24.8955 28.8721 24.8279 29.1136C24.7603 29.3567 24.6721 29.5439 24.5634 29.6783C24.3841 29.8896 24.0638 29.9953 23.5994 29.9953H22.5473V26.6846ZM30.7969 27.8727H27.8256V27.5949C27.8359 27.1888 27.9799 26.9261 28.2577 26.8084C28.3973 26.7359 28.7132 26.6952 29.207 26.6846H30.794V25.7667H29.0688C28.4869 25.7667 28.0358 25.8392 27.714 25.9826C27.393 26.1268 27.1325 26.3837 26.9792 26.7072C26.844 26.9488 26.7735 27.456 26.7706 28.2275V30.9116H27.8227V28.7906H30.794V27.8727H30.7969Z" fill="#DF0C0C"/>
</svg>
