<svg width="16" height="16" viewBox="0 0 16 16" fill="none" xmlns="http://www.w3.org/2000/svg">
<path d="M12.12 5.3589L12.429 5.04994C12.9409 4.53804 13.7709 4.53804 14.2827 5.04994C14.7947 5.56184 14.7947 6.3918 14.2827 6.90368L13.9738 7.21268M12.12 5.3589C12.12 5.3589 12.1587 6.01544 12.7379 6.59474C13.3173 7.17401 13.9738 7.21268 13.9738 7.21268M12.12 5.3589L9.27961 8.19928C9.08721 8.39168 8.99101 8.48788 8.90828 8.59395C8.81074 8.71908 8.72708 8.85448 8.65881 8.99768C8.60094 9.11915 8.55788 9.24815 8.47188 9.50628L8.19641 10.3327L8.10728 10.6M13.9738 7.21268L11.1334 10.0531C10.941 10.2455 10.8448 10.3417 10.7387 10.4244C10.6136 10.5219 10.4782 10.6056 10.335 10.6739C10.2135 10.7317 10.0845 10.7748 9.82641 10.8608L9.00001 11.1363L8.73268 11.2254M8.10728 10.6L8.01814 10.8674C7.97581 10.9944 8.00888 11.1345 8.10354 11.2291C8.19821 11.3238 8.33828 11.3569 8.46528 11.3145L8.73268 11.2254M8.10728 10.6L8.73268 11.2254" stroke="#2D2D2D" stroke-width="1.03571"/>
<path d="M5.33398 8.66602H7.00065" stroke="#2D2D2D" stroke-width="1.03571" stroke-linecap="round"/>
<path d="M5.33398 6H9.66732" stroke="#2D2D2D" stroke-width="1.03571" stroke-linecap="round"/>
<path d="M5.33398 11.334H6.33398" stroke="#2D2D2D" stroke-width="1.03571" stroke-linecap="round"/>
<path d="M13.2189 2.11503C12.4379 1.33398 11.1808 1.33398 8.66667 1.33398H7.33333C4.81917 1.33398 3.5621 1.33398 2.78105 2.11503C2 2.89608 2 4.15316 2 6.66732V9.33398C2 11.8481 2 13.1053 2.78105 13.8863C3.5621 14.6673 4.81917 14.6673 7.33333 14.6673H8.66667C11.1808 14.6673 12.4379 14.6673 13.2189 13.8863C13.8477 13.2575 13.9703 12.3204 13.9942 10.6673" stroke="#2D2D2D" stroke-width="1.03571" stroke-linecap="round"/>
</svg>
