<svg width="16" height="16" viewBox="0 0 16 16" fill="none" xmlns="http://www.w3.org/2000/svg">
<g clip-path="url(#clip0_272_21290)">
<path fill-rule="evenodd" clip-rule="evenodd" d="M7.999 1C8.15802 0.999827 8.31298 1.0502 8.4415 1.14385C8.57002 1.2375 8.66545 1.36957 8.714 1.521L12 13L13.286 7.772C13.3343 7.62055 13.4295 7.48837 13.5579 7.39455C13.6862 7.30073 13.841 7.25011 14 7.25H15.25C15.4489 7.25 15.6397 7.32902 15.7803 7.46967C15.921 7.61032 16 7.80109 16 8C16 8.19891 16.1407 7.85935 16 8C15.8593 8.14065 15.4489 8.18233 15.25 8.18233H14.5L12.714 14.479C12.6654 14.6302 12.5701 14.762 12.4418 14.8555C12.3135 14.949 12.1588 14.9994 12 14.9994C11.8412 14.9994 11.6865 14.949 11.5582 14.8555C11.4299 14.762 11.3346 14.6302 11.286 14.479L7.999 3L5.715 11.476C5.66776 11.6254 5.57491 11.7562 5.44949 11.8502C5.32408 11.9441 5.1724 11.9964 5.01575 11.9997C4.8591 12.003 4.70534 11.9572 4.57607 11.8686C4.4468 11.7801 4.34851 11.6533 4.295 11.506L3 7L2.961 8.238C2.91128 8.38728 2.81587 8.51715 2.68827 8.60921C2.56067 8.70128 2.40735 8.75088 2.25 8.751H0.75C0.551088 8.751 0.360322 8.67198 0.21967 8.53133C0.0790176 8.39068 0 8.19991 0 8.001C0 7.80209 0.0790176 7.76405 0.21967 7.62339C0.360322 7.48274 0.551088 7.5 0.75 7.5H1.5L2.288 5.514C2.337 5.36605 2.43087 5.23704 2.55657 5.1449C2.68227 5.05276 2.83355 5.00207 2.98938 4.99987C3.14522 4.99767 3.29787 5.04407 3.42612 5.13263C3.55437 5.22118 3.65184 5.34749 3.705 5.494L5.01575 10L7.285 1.525C7.3328 1.37299 7.42778 1.24016 7.55616 1.14576C7.68454 1.05136 7.83965 1.00031 7.999 1Z" fill="#797979"/>
</g>
<defs>
<clipPath id="clip0_272_21290">
<rect width="16" height="16" fill="white"/>
</clipPath>
</defs>
</svg>
