<svg width="51" height="50" viewBox="0 0 51 50" fill="none" xmlns="http://www.w3.org/2000/svg">
<path d="M29.9496 0L46.313 16.666V44.166C46.313 47.3885 43.7496 50 40.5858 50H11.1313C7.96758 50 5.40381 47.3862 5.40381 44.166V5.83398C5.40405 2.61152 7.96777 0 11.1315 0H29.9496Z" fill="#5895FF"/>
<path d="M46.3161 16.666H35.9687C32.8071 16.666 29.9526 13.7612 29.9526 10.5385V0L46.3161 16.666Z" fill="white" fill-opacity="0.4"/>
<path d="M21.7711 35.4141V37.498H13.5894V35.4141H21.7711ZM29.9531 31.248V33.332H13.5894V31.248H29.9531ZM29.9531 27.082V29.1641H13.5894V27.082H29.9531ZM29.9531 22.9141V24.998H13.5894V22.9141H29.9531Z" fill="white"/>
</svg>
