<svg width="20" height="20" viewBox="0 0 20 20" fill="none" xmlns="http://www.w3.org/2000/svg">
<path d="M18.7755 5.34379C18.756 5.34379 18.7268 5.34379 18.6976 5.34379C13.5424 4.87541 8.39702 4.69866 3.30032 5.16704L1.31233 5.34379C0.903034 5.37914 0.542467 5.11402 0.503486 4.74284C0.464506 4.37167 0.756858 4.05353 1.15641 4.01818L3.1444 3.84143C8.3288 3.36421 13.5814 3.54979 18.8437 4.01818C19.2433 4.05353 19.5356 4.38051 19.4966 4.74284C19.4674 5.0875 19.1458 5.34379 18.7755 5.34379Z" fill="white"/>
<path d="M6.59391 4.45033C6.55493 4.45033 6.51595 4.45033 6.46722 4.44149C6.07742 4.37963 5.80456 4.03497 5.87277 3.68147L6.08716 2.52377C6.24309 1.67538 6.45748 0.5 8.72804 0.5H11.2812C13.5616 0.5 13.776 1.71956 13.9222 2.53261L14.1365 3.68147C14.2048 4.04381 13.9319 4.38846 13.5421 4.44149C13.1426 4.50335 12.7625 4.2559 12.704 3.90241L12.4896 2.75354C12.3532 1.98469 12.324 1.83445 11.291 1.83445H8.73778C7.70485 1.83445 7.68536 1.95817 7.53918 2.7447L7.31504 3.89357C7.25657 4.22055 6.94473 4.45033 6.59391 4.45033Z" fill="white"/>
<path d="M13.133 19.5H6.87666C3.47563 19.5 3.3392 17.7943 3.23201 16.4157L2.59858 7.51639C2.56934 7.15405 2.88119 6.83592 3.28073 6.8094C3.69003 6.79173 4.0311 7.06569 4.06034 7.42802L4.69377 16.3273C4.80096 17.6706 4.83994 18.1743 6.87666 18.1743H13.133C15.1795 18.1743 15.2184 17.6706 15.3159 16.3273L15.9493 7.42802C15.9786 7.06569 16.3294 6.79173 16.7289 6.8094C17.1285 6.83592 17.4403 7.14522 17.4111 7.51639L16.7777 16.4157C16.6705 17.7943 16.534 19.5 13.133 19.5Z" fill="white"/>
<path d="M11.6225 14.642H8.37738C7.97782 14.642 7.64648 14.3415 7.64648 13.9792C7.64648 13.6169 7.97782 13.3164 8.37738 13.3164H11.6225C12.022 13.3164 12.3534 13.6169 12.3534 13.9792C12.3534 14.3415 12.022 14.642 11.6225 14.642Z" fill="white"/>
<path d="M12.4428 11.103H7.57024C7.17069 11.103 6.83936 10.8025 6.83936 10.4402C6.83936 10.0778 7.17069 9.77734 7.57024 9.77734H12.4428C12.8423 9.77734 13.1736 10.0778 13.1736 10.4402C13.1736 10.8025 12.8423 11.103 12.4428 11.103Z" fill="white"/>
</svg>
